# xmcd
#
# Track frame offsets: 
#        150
#        20042
#        38397
#        52592
#        67082
#        92640
#        103740
#        122120
#        142890
#        169890
#        191712
#        203995
#        221345
#        243620
#        249315
#        269372
#        284637
#        295890
#        328780
#
# Disc length: 4656 seconds
#
# Revision: 0
# Processed by: cddbd v1.4PL0 Copyright (c) Steve Scherf et al.
# Submitted via: ExactAudioCopy v0.90b4
#
DISCID=23122e13
DTITLE=Steve Miller Band - The Best Of 1968 - 1973
DYEAR=1990
DGENRE=Blues
TTITLE0=The Joker
TTITLE1=Living In The U.S.A
TTITLE2=My Dark Hour
TTITLE3=Going To The Country
TTITLE4=Shu Ba Da Du Ma Ma Ma Ma
TTITLE5=Going To Mexico
TTITLE6=Come On In My Kitchen
TTITLE7=Evil
TTITLE8=Song For Our Ancestors
TTITLE9=Your Saving Grace
TTITLE10=Quicksilver Girl
TTITLE11=Seasons
TTITLE12=Space Cowboy
TTITLE13=Gangster Of Love
TTITLE14=Kow Kow Calqulator
TTITLE15=Little Girl
TTITLE16=Don't Let Nobody Turn You Around
TTITLE17=Jackson-Kent Blues
TTITLE18=Sugar Babe
EXTD=
EXTT0=
EXTT1=
EXTT2=
EXTT3=
EXTT4=
EXTT5=
EXTT6=
EXTT7=
EXTT8=
EXTT9=
EXTT10=
EXTT11=
EXTT12=
EXTT13=
EXTT14=
EXTT15=
EXTT16=
EXTT17=
EXTT18=
PLAYORDER=
